<?xml version="1.0" encoding="UTF-8"?>
<svg id="Layer_2" data-name="Layer 2" xmlns="http://www.w3.org/2000/svg" xmlns:xlink="http://www.w3.org/1999/xlink" viewBox="0 0 1061 963.68">
  <defs>
    <radialGradient id="radial-gradient" cx="530.5" cy="481.84" fx="530.5" fy="481.84" r="506.26" gradientUnits="userSpaceOnUse">
      <stop offset="0" stop-color="#12add7"/>
      <stop offset="1" stop-color="#063e59"/>
    </radialGradient>
  </defs>
  <g id="Layer_1-2" data-name="Layer 1">
    <path d="m558.07,292.91c.05-58.22-1.28-116.48.74-174.63,1.23-35.41,18.66-64.53,47.24-86.3,50.42-38.39,118.74-42.07,170.71-8.33,30.27,19.65,52.14,46.02,59.39,82.44,1.37,6.87,1.46,14.07,1.47,21.11.06,24.53-.14,49.06-.31,73.59-.1,13.86-7.46,22.87-21.36,24.69-9.02,1.18-18.29,1.56-27.36.96-11.85-.78-19.2-9.21-19.31-21.15-.17-19.8.1-39.6.05-59.4-.1-37.43-24.74-65.29-62.96-69.39-33.52-3.59-68.82,16.37-77.09,53.45-1.58,7.1-1.47,14.64-1.58,21.98-.44,28.36-.57,56.73-1,85.09-.28,18.05,7.95,27.5,25.59,27.47,73.26-.11,146.53-.42,219.79-.84,13.86-.08,21.98-6.43,22.99-16.84.95-9.79-5.7-16.35-19.73-19.48-.83-.18-1.61-.56-3.33-1.17.02-23.62.03-47.44.05-71.86,14.56-2.47,28,1.25,41.15,6.49,52.78,21.05,77.51,80.13,53.54,129.63-14.46,29.86-38.96,44.61-72.5,44.5-70.33-.23-140.66-.11-210.98-.12-27.36,0-48.8,10.85-61.73,35.47-11.2,21.31-32.39,26.31-48.28,20.96-8.74-2.95-14.97-8.68-15.05-18.58-.22-26.59-.15-53.18-.13-79.76Zm143.66-164.25c-16.46-1.41-31.4,8.98-33.44,25.93-1.86,15.37-1.95,31.21-.61,46.65,1.47,16.94,10.6,23.66,27.83,23.85,4.13.05,8.26-.05,12.38-.14,13.22-.27,24.43-11.45,24.74-24.8.15-6.48.35-33.03.15-39.81-.51-16.73-13.8-30.22-31.04-31.7Zm-197.78,612.48c-.13,33.67.37,67.36-.58,101.01-1.04,36.93-18.98,65.89-46.59,88.98-57.88,48.42-153.19,41.47-204.56-18.6-21.17-24.76-29.32-54.01-28.51-86.17.4-15.95.48-31.9.86-47.85.35-14.96,9.71-24.73,24.84-25.67,6.77-.42,13.59-.28,20.38.02,13.31.6,22.45,10.03,22.65,23.5.22,14.47.02,28.95.11,43.43.24,39.81,27.26,62.82,62.11,67.39,33.18,4.35,63.01-12.93,74.69-41.76,2.6-6.41,4.23-13.67,4.34-20.57.48-29.24.32-58.5.2-87.75-.06-15.04-7.94-22.86-23.05-22.88-73.86-.13-147.71-.18-221.57-.17-13.73,0-21.5,5.95-22.18,16.43-.62,9.54,6.39,16.44,19.32,19.06.56.11,1.07.47,2.63,1.18-.02,22.27-.03,44.28-.05,66.75-12.56,2.97-23.76-.72-34.91-4.28-48.4-15.48-76.75-64.01-65.75-112.72,5.74-25.43,29.42-54.98,67.27-54.43,72.36,1.05,144.75.2,217.13.37,30.48.07,54.49-10.51,69.17-38.73,5.7-10.96,15.09-17.72,27.51-20.37,22.12-4.73,35.02,5.35,34.97,27.98-.1,41.95-.28,83.9-.44,125.86Zm-143.53,95.17c15.43,1.36,29.63-7.98,33.57-23.06,1.61-6.16,1.38-28.76,1.14-33.47-.69-13.71-9.69-24.22-23.26-26.08-6.32-.87-12.99-.59-19.33.34-13.66,2.01-20.84,9.68-21.78,23.56-.68,9.97-.76,20.07.06,30.02,1.34,16.08,13.39,27.27,29.6,28.69ZM86.53,255.74c-3.66-55.96,39.27-93.29,86.15-102.36,5.34-1.03,11.04-.13,17-.13-.02,24.6-.04,48.66-.05,73.1-2.42.68-4.3,1.4-6.25,1.72-10.13,1.66-16.57,8.52-16.39,17.61.18,9.17,6.79,17.22,16.42,17.53,26.85.84,53.73,1.05,80.6,1.18,44.61.21,89.23.11,133.84.25,30.81.1,38.11-4.84,36.98-36.51-.99-27.75-1.03-55.57-.2-83.32.84-28.29-18.44-58.31-53.62-66.89-39.06-9.54-87.22,15.54-87.8,66.99-.22,19.5.02,39.01-.22,58.5-.15,12.08-6.08,20.39-17.7,21.75-10.67,1.25-21.8.96-32.44-.62-10.85-1.61-17.73-11.22-17.8-22.24-.18-28.96-1.68-58.02.25-86.85,2.71-40.53,24.49-70.19,58.47-91.63C310.86,6.73,340.44-1,372.1.74c64.1,3.53,120.82,47.41,131.56,113.94,1.58,9.81.57,20.05.58,30.1.01,72.11-.1,144.22.02,216.32.02,12.12.61,24.18-13.31,29.81-13.9,5.62-33.45.82-42.83-10.83-4.42-5.49-8.11-11.6-11.91-17.57-12.25-19.23-30.91-27.44-52.49-27.64-72.09-.67-144.2-.38-216.3-.52-19.42-.04-37.36-4.26-52.17-18.02-17.69-16.43-27.15-36.39-28.73-60.59Zm308.53-52.28c1.06-7.8,1.1-36.8.83-43.28-.7-16.98-14.34-30.88-30.92-31.75-18-.95-31.54,9.67-33.84,27.68-1.26,9.89-1.06,19.98-1.18,29.99-.39,31.93,7.32,38.85,39.31,39.12,11.94.1,24-8.5,25.8-21.76Zm337.09,583.43c-.03,2.66,0,5.31,0,7.97h.32c-.3,5.6.08,11.33-1.04,16.75-3.3,15.98-17.13,25.96-33.81,25.07-16.95-.9-28.79-11.71-30.1-28.82-.83-10.83-.53-21.82.11-32.68.58-9.76,6.36-16.98,15.49-19.65,23.25-6.78,49.41-2.38,49.03,31.35Zm167.5-140.71c-70.26,2.19-140.65.34-210.98.61-29.86.12-53.28-10.23-68.6-37.04-3.82-6.69-9.54-13-15.83-17.43-10.81-7.62-23.17-8.41-35.31-2.44-11.12,5.47-11.91,15.82-11.93,26.52-.14,69.74-.31,139.48-.56,209.22-.15,40.96,14.25,75.45,45.15,102.74,46.98,41.49,124.34,45.81,173.63,13.48,37.34-24.5,61.82-57.09,61.83-103.98,0-19.2-.07-38.4-.22-57.6-.1-12.69-6.74-22.84-19.19-25.28-10.23-2-21.2-2.22-31.57-.98-11.3,1.36-17,9.77-17.09,21.38-.12,15.07.52,30.18-.28,45.21-.46,8.7-1.82,17.8-5.02,25.82-11.4,28.6-43.01,45.53-76.06,41.08-34.46-4.64-61.99-34.97-60.51-66.61,1.23-26.24.14-52.6.16-78.9.01-20.3,7.39-27.64,27.87-27.64,71.22,0,142.44.06,213.66.1,3.25,0,6.51-.06,9.75.21,9.32.78,14.25,6.41,15.93,15.17,1.37,7.16-3.56,14.85-11.5,17.89-3.25,1.24-6.74,1.86-11.28,3.07-.02,22.28-.03,44.74-.05,67.53,3.43.32,5.74.72,8.05.72,51.16,0,103.23-50.12,96.1-105.93-4.28-33.55-30.99-68.34-76.16-66.93Zm-429.66-214.24c-18.38-.02-34.58-6.12-46.38-20.19-14.21-16.94-32.08-22.41-53.35-22.22-61.44.56-122.88.28-184.32.76-18.8.15-33.6-5.05-44.08-22.09-10.14-16.49-26.97-20.28-45.05-17.55-31.45,4.74-55,22.59-72.42,48.05-39.98,58.45-28.72,136.26,25.99,181.68,22.77,18.91,48.89,25.89,78.56,19.84,15.46-3.15,31.38-5.27,47.13-5.47,66.76-.85,133.52-.79,200.28-1.08,16.88-.07,30.76-6.35,42.03-19.19,5.39-6.14,11.75-11.64,18.41-16.41,12.95-9.28,28.17-9.45,43.34-9.21,7.51.12,15.03.03,23.05.04.03-39.52.06-76.96.08-116.94-11.61,0-22.43-.01-33.26-.02Zm-94.56,80.71c-5.24,2.28-11.4,3.41-17.14,3.43-83.04.16-166.08.14-249.12-.06-25.07-.06-40.1-21.4-31.62-44.18,4.62-12.4,15.73-19.13,31.91-19.14,41.37,0,208.04.1,250,.25,18.77.07,29.89,8.95,33.68,26.32,2.78,12.75-4.72,27.74-17.72,33.38Zm680.35-70.64c-11.26-43.15-36.76-74.23-80.28-88.04-25.37-8.05-50.38-.89-61.55,20.81-5.37,10.42-15.61,14.87-27.43,14.9-65.58.2-131.17.67-196.75.4-20.12-.08-36.78,5.2-50.18,21.05-12.5,14.78-29.23,21.39-48.73,20.89-10.52-.27-21.05-.06-32.33-.07-.03,39.62-.06,77.58-.08,117.08,11.39,0,21.38-.09,31.36.04,20.72.27,38.74,6.22,51.83,23.64,11.48,15.28,27.39,21.58,46.29,21.62,65.59.12,131.19.14,196.77.85,15.2.16,30.72,1.35,45.46,4.79,24.37,5.68,46.92,2.87,68.18-9.63,49.45-29.05,72.89-89.11,57.44-148.33Zm-103.29,74.49l-251.5-.1c-18.36-.5-31.72-13.65-31.94-31.14-.23-18.23,12.46-31.44,31.78-31.98,18.58-.52,210.17-.11,251.49-.04,20.74.04,33.88,12.24,33.95,31.36.06,18.71-13.38,31.86-33.79,31.9Z" style="fill: url(#radial-gradient); stroke: #808285; stroke-miterlimit: 10;"/>
  </g>
</svg>